<?xml version="1.0" standalone="no"?>
<!DOCTYPE svg PUBLIC "-//W3C//DTD SVG 20010904//EN"
 "http://www.w3.org/TR/2001/REC-SVG-20010904/DTD/svg10.dtd">
<svg version="1.0" xmlns="http://www.w3.org/2000/svg"
 width="512.000000pt" height="512.000000pt" viewBox="0 0 512.000000 512.000000"
 preserveAspectRatio="xMidYMid meet">

<g transform="translate(0.000000,512.000000) scale(0.100000,-0.100000)"
fill="#000000" stroke="none">
<path d="M2375 5054 c-16 -2 -73 -9 -125 -15 -435 -49 -869 -231 -1240 -518
-110 -85 -327 -302 -412 -412 -278 -358 -445 -750 -515 -1206 -23 -150 -23
-536 0 -686 112 -727 493 -1334 1087 -1732 330 -221 669 -348 1085 -407 135
-19 503 -16 650 5 373 55 731 192 1035 395 617 413 996 1025 1102 1777 17 117
17 493 0 610 -91 647 -391 1200 -867 1602 -357 302 -802 502 -1265 568 -108
16 -467 29 -535 19z m150 -1868 l500 -684 3 684 2 684 350 0 350 0 0 -1310 0
-1310 -301 2 -302 3 -518 708 -519 709 0 -711 0 -711 -350 0 -350 0 0 1310 0
1310 318 0 317 0 500 -684z"/>
</g>
</svg>
